<?xml version="1.0" encoding="UTF-8" standalone="no"?>
<!DOCTYPE svg PUBLIC "-//W3C//DTD SVG 1.1//EN"
 "http://www.w3.org/Graphics/SVG/1.1/DTD/svg11.dtd">
<!-- Generated by graphviz version 2.43.0 (0)
 -->
<!-- Title: a_graph Pages: 1 -->
<svg width="10059pt" height="200pt"
 viewBox="0.00 0.00 10059.00 200.00" xmlns="http://www.w3.org/2000/svg" xmlns:xlink="http://www.w3.org/1999/xlink">
<g id="graph0" class="graph" transform="scale(1 1) rotate(0) translate(4 196)">
<title>a_graph</title>
<polygon fill="white" stroke="transparent" points="-4,4 -4,-196 10055,-196 10055,4 -4,4"/>
<!-- T3152 -->
<g id="node1" class="node">
<title>T3152</title>
<polygon fill="none" stroke="#0058ad" points="0,-162.5 0,-191.5 10051,-191.5 10051,-162.5 0,-162.5"/>
<text text-anchor="middle" x="1132.5" y="-173.3" font-family="Times,serif" font-size="14.00" fill="#0058ad">r &quot;k0&quot; [11 62 115 164 168 194 195 274 304 320 337 343 358 374 416 428 430 435 469 510 520 570 626 631 662 665 668 711 716 728 743 764 775 803 836 870 904 907 927 964 984 993 1014 1023 1034 1046 1085 1111 1143 1184 1194 1201 1218 1248 1263 1274 1338 1350 1376 1397 1400 1426 1452 1466]</text>
<polyline fill="none" stroke="#0058ad" points="2265,-162.5 2265,-191.5 "/>
<text text-anchor="middle" x="3514.5" y="-173.3" font-family="Times,serif" font-size="14.00" fill="#0058ad">r &quot;k4&quot; [3 28 32 69 76 97 103 125 250 263 288 302 335 352 360 377 402 450 482 483 511 517 525 535 541 560 577 578 596 601 672 705 752 825 857 858 859 860 883 894 898 917 939 962 986 997 998 1009 1015 1021 1057 1082 1093 1097 1121 1145 1170 1239 1288 1307 1312 1314 1324 1348 1372 1379 1423 1424 1446 1456 1459 1464]</text>
<polyline fill="none" stroke="#0058ad" points="4764,-162.5 4764,-191.5 "/>
<text text-anchor="middle" x="5980" y="-173.3" font-family="Times,serif" font-size="14.00" fill="#0058ad">r &quot;k7&quot; [9 16 18 42 67 114 120 133 139 148 199 202 204 213 230 248 322 333 364 371 372 412 473 474 516 524 538 548 568 637 650 674 701 702 704 712 721 749 757 767 769 801 812 824 831 847 856 869 935 940 957 1008 1016 1018 1055 1059 1060 1068 1081 1118 1138 1179 1200 1219 1223 1258 1264 1352 1370 1418 1436]</text>
<polyline fill="none" stroke="#0058ad" points="7196,-162.5 7196,-191.5 "/>
<text text-anchor="middle" x="8623.5" y="-173.3" font-family="Times,serif" font-size="14.00" fill="#0058ad">r &quot;k8&quot; [1 4 10 13 23 26 73 75 124 135 144 145 203 211 212 219 223 238 265 301 340 380 392 424 431 447 456 467 471 488 515 528 533 539 543 569 635 666 713 726 736 748 790 795 815 827 888 897 903 937 952 958 971 982 1006 1019 1025 1045 1069 1076 1080 1092 1096 1127 1129 1147 1149 1159 1162 1171 1175 1207 1222 1224 1228 1241 1250 1268 1298 1305 1316 1361 1362]</text>
</g>
<!-- T3148 -->
<g id="node2" class="node">
<title>T3148</title>
<polygon fill="none" stroke="#0058ad" points="2955.5,-81.5 2955.5,-110.5 8023.5,-110.5 8023.5,-81.5 2955.5,-81.5"/>
<text text-anchor="middle" x="3006" y="-92.3" font-family="Times,serif" font-size="14.00" fill="#0058ad">a &quot;k7&quot; 1467</text>
<polyline fill="none" stroke="#0058ad" points="3056.5,-81.5 3056.5,-110.5 "/>
<text text-anchor="middle" x="3107" y="-92.3" font-family="Times,serif" font-size="14.00" fill="#0058ad">a &quot;k4&quot; 1468</text>
<polyline fill="none" stroke="#0058ad" points="3157.5,-81.5 3157.5,-110.5 "/>
<text text-anchor="middle" x="3208" y="-92.3" font-family="Times,serif" font-size="14.00" fill="#0058ad">a &quot;k7&quot; 1469</text>
<polyline fill="none" stroke="#0058ad" points="3258.5,-81.5 3258.5,-110.5 "/>
<text text-anchor="middle" x="4528.5" y="-92.3" font-family="Times,serif" font-size="14.00" fill="#0058ad">r &quot;k4&quot; [3 28 32 69 76 97 103 125 250 263 288 302 335 352 360 377 402 450 482 483 511 517 525 535 541 560 577 578 596 601 672 705 752 825 857 858 859 860 883 894 898 917 939 962 986 997 998 1009 1015 1021 1057 1082 1093 1097 1121 1145 1170 1239 1288 1307 1312 1314 1324 1348 1372 1379 1423 1424 1446 1456 1459 1464 1468]</text>
<polyline fill="none" stroke="#0058ad" points="5798.5,-81.5 5798.5,-110.5 "/>
<text text-anchor="middle" x="6911" y="-92.3" font-family="Times,serif" font-size="14.00" fill="#0058ad">r &quot;k0&quot; [11 62 115 164 168 194 195 274 304 320 337 343 358 374 416 428 430 435 469 510 520 570 626 631 662 665 668 711 716 728 743 764 775 803 836 870 904 907 927 964 984 993 1014 1023 1034 1046 1085 1111 1143 1184 1194 1201 1218 1248 1263 1274 1338 1350 1376 1397 1400 1426 1452]</text>
</g>
<!-- T3152&#45;&gt;T3148 -->
<g id="edge1" class="edge">
<title>T3152:f2&#45;&gt;T3148:f0</title>
<path fill="none" stroke="#5b00c0" d="M5980.5,-162C5980.5,-0.09 3126.27,-265.02 3009.2,-120.62"/>
<polygon fill="#5b00c0" stroke="#5b00c0" points="3012.36,-119.07 3005.5,-111 3005.83,-121.59 3012.36,-119.07"/>
<text text-anchor="middle" x="5959" y="-132.8" font-family="Times,serif" font-size="14.00" fill="#5b00c0">rw</text>
</g>
<!-- T3144 -->
<g id="node3" class="node">
<title>T3144</title>
<polygon fill="none" stroke="#0058ad" points="1694,-0.5 1694,-29.5 1795,-29.5 1795,-0.5 1694,-0.5"/>
<text text-anchor="middle" x="1744.5" y="-11.3" font-family="Times,serif" font-size="14.00" fill="#0058ad">a &quot;k0&quot; 1466</text>
</g>
<!-- T3148&#45;&gt;T3144 -->
<g id="edge2" class="edge">
<title>T3148:f4&#45;&gt;T3144:f0</title>
<path fill="none" stroke="#5b00c0" d="M6911.5,-81C6911.5,-11.35 2064.81,-39.48 1801.82,-30.13"/>
<polygon fill="#5b00c0" stroke="#5b00c0" points="1801.72,-26.62 1791.52,-29.51 1801.29,-33.6 1801.72,-26.62"/>
<text text-anchor="middle" x="6779" y="-51.8" font-family="Times,serif" font-size="14.00" fill="#5b00c0">rw</text>
</g>
<!-- T3144&#45;&gt;T3152 -->
<g id="edge3" class="edge">
<title>T3144:f0&#45;&gt;T3152:f0</title>
<path fill="none" stroke="#c000a5" d="M1696.35,-29.5C1695.73,-29.67 1695.11,-29.84 1694.5,-30 1573.95,-62.21 1156.22,-35.27 1133.47,-151.83"/>
<polygon fill="#c000a5" stroke="#c000a5" points="1129.96,-151.71 1132.5,-162 1136.93,-152.38 1129.96,-151.71"/>
<text text-anchor="middle" x="1246" y="-92.3" font-family="Times,serif" font-size="14.00" fill="#c000a5">wr</text>
</g>
</g>
</svg>
