<?xml version="1.0" encoding="UTF-8" standalone="no"?>
<!DOCTYPE svg PUBLIC "-//W3C//DTD SVG 1.1//EN"
 "http://www.w3.org/Graphics/SVG/1.1/DTD/svg11.dtd">
<!-- Generated by graphviz version 13.1.0 (20250701.0955)
 -->
<!-- Title: a_graph Pages: 1 -->
<svg width="1438pt" height="120pt"
 viewBox="0.00 0.00 1438.00 120.00" xmlns="http://www.w3.org/2000/svg" xmlns:xlink="http://www.w3.org/1999/xlink">
<g id="graph0" class="graph" transform="scale(1 1) rotate(0) translate(4 116.1)">
<title>a_graph</title>
<polygon fill="white" stroke="none" points="-4,4 -4,-116.1 1433.62,-116.1 1433.62,4 -4,4"/>
<!-- T620 -->
<g id="node1" class="node">
<title>T620</title>
<polygon fill="none" stroke="#0058ad" points="219.38,-82.8 219.38,-111.6 1429.62,-111.6 1429.62,-82.8 219.38,-82.8"/>
<text xml:space="preserve" text-anchor="middle" x="413.75" y="-92.15" font-family="Times,serif" font-size="14.00" fill="#0058ad">r &quot;k9&quot; [6 18 24 40 49 51 94 110 150 191 198 242 250 267 270 278]</text>
<polyline fill="none" stroke="#0058ad" points="608.12,-82.8 608.12,-111.6"/>
<text xml:space="preserve" text-anchor="middle" x="645.75" y="-92.15" font-family="Times,serif" font-size="14.00" fill="#0058ad">a &quot;k8&quot; 299</text>
<polyline fill="none" stroke="#0058ad" points="683.38,-82.8 683.38,-111.6"/>
<text xml:space="preserve" text-anchor="middle" x="721" y="-92.15" font-family="Times,serif" font-size="14.00" fill="#0058ad">a &quot;k0&quot; 300</text>
<polyline fill="none" stroke="#0058ad" points="758.62,-82.8 758.62,-111.6"/>
<text xml:space="preserve" text-anchor="middle" x="899.75" y="-92.15" font-family="Times,serif" font-size="14.00" fill="#0058ad">r &quot;k1&quot; [5 22 31 69 99 100 115 124 152 228 277]</text>
<polyline fill="none" stroke="#0058ad" points="1040.88,-82.8 1040.88,-111.6"/>
<text xml:space="preserve" text-anchor="middle" x="1235.25" y="-92.15" font-family="Times,serif" font-size="14.00" fill="#0058ad">r &quot;k9&quot; [6 18 24 40 49 51 94 110 150 191 198 242 250 267 270 278]</text>
</g>
<!-- T624 -->
<g id="node2" class="node">
<title>T624</title>
<polygon fill="none" stroke="#0058ad" points="0,-0.5 0,-29.3 1041,-29.3 1041,-0.5 0,-0.5"/>
<text xml:space="preserve" text-anchor="middle" x="141.12" y="-9.85" font-family="Times,serif" font-size="14.00" fill="#0058ad">r &quot;k1&quot; [5 22 31 69 99 100 115 124 152 228 277]</text>
<polyline fill="none" stroke="#0058ad" points="282.25,-0.5 282.25,-29.3"/>
<text xml:space="preserve" text-anchor="middle" x="319.88" y="-9.85" font-family="Times,serif" font-size="14.00" fill="#0058ad">a &quot;k5&quot; 297</text>
<polyline fill="none" stroke="#0058ad" points="357.5,-0.5 357.5,-29.3"/>
<text xml:space="preserve" text-anchor="middle" x="395.12" y="-9.85" font-family="Times,serif" font-size="14.00" fill="#0058ad">a &quot;k9&quot; 301</text>
<polyline fill="none" stroke="#0058ad" points="432.75,-0.5 432.75,-29.3"/>
<text xml:space="preserve" text-anchor="middle" x="470.38" y="-9.85" font-family="Times,serif" font-size="14.00" fill="#0058ad">a &quot;k3&quot; 303</text>
<polyline fill="none" stroke="#0058ad" points="508,-0.5 508,-29.3"/>
<text xml:space="preserve" text-anchor="middle" x="659.25" y="-9.85" font-family="Times,serif" font-size="14.00" fill="#0058ad">r &quot;k8&quot; [15 50 74 135 140 147 175 182 212 244 284]</text>
<polyline fill="none" stroke="#0058ad" points="810.5,-0.5 810.5,-29.3"/>
<text xml:space="preserve" text-anchor="middle" x="925.75" y="-9.85" font-family="Times,serif" font-size="14.00" fill="#0058ad">r &quot;k0&quot; [14 39 72 159 166 193 259 271]</text>
</g>
<!-- T620&#45;&gt;T624 -->
<g id="edge1" class="edge">
<title>T620:f0&#45;&gt;T624:f2</title>
<path fill="none" stroke="#5b00c0" d="M413.75,-82.3C413.75,-61.8 400.98,-56.23 396.59,-40.86"/>
<polygon fill="#5b00c0" stroke="#5b00c0" points="400.1,-40.76 395.32,-31.3 393.16,-41.67 400.1,-40.76"/>
<text xml:space="preserve" text-anchor="middle" x="416.37" y="-51" font-family="Times,serif" font-size="14.00" fill="#5b00c0">rw</text>
</g>
<!-- T624&#45;&gt;T620 -->
<g id="edge2" class="edge">
<title>T624:f4&#45;&gt;T620:f1</title>
<path fill="none" stroke="#5b00c0" d="M659.25,-29.8C659.25,-49.56 650.17,-56.02 646.9,-71"/>
<polygon fill="#5b00c0" stroke="#5b00c0" points="643.43,-70.49 645.9,-80.79 650.4,-71.2 643.43,-70.49"/>
<text xml:space="preserve" text-anchor="middle" x="663.11" y="-51" font-family="Times,serif" font-size="14.00" fill="#5b00c0">rw</text>
</g>
</g>
</svg>
